<svg width="278" height="86" viewBox="0 0 278 86" fill="none" xmlns="http://www.w3.org/2000/svg">
<path fill-rule="evenodd" clip-rule="evenodd" d="M1.92735 30.2831C12.1903 29.1657 22.8404 32.6539 30.537 40.682C42.3532 53.0071 43.1877 71.8354 33.3015 85.08C29.2822 84.147 25.4799 82.6494 21.9792 80.6791C30.7262 71.8682 30.8917 57.6383 22.2513 48.6257C16.3189 42.4376 7.75444 40.2947 0 42.2665C0.078933 38.1012 0.746572 34.0791 1.92735 30.2831Z" fill="#00B290"/>
<path fill-rule="evenodd" clip-rule="evenodd" d="M1.34961 53.8795C5.57959 52.1583 10.6136 53.0721 13.966 56.5693C18.3532 61.1452 18.1999 68.4116 13.6238 72.7987C13.3155 73.0941 12.9946 73.3684 12.6637 73.6229C7.27876 68.2554 3.30519 61.4728 1.34961 53.8795Z" fill="#00B290"/>
<path fill-rule="evenodd" clip-rule="evenodd" d="M5.67969 64.5129C5.67969 64.5129 5.67969 64.513 5.67969 64.5107C5.68095 64.5107 5.68096 64.5107 5.68222 64.5107C5.68222 64.513 5.68222 64.5129 5.68222 64.5129C5.68096 64.5129 5.68095 64.5129 5.67969 64.5129Z" fill="black"/>
<path fill-rule="evenodd" clip-rule="evenodd" d="M18.2292 23.8342C15.3314 20.8117 13.0946 17.3976 11.5137 13.7706C14.2768 10.7974 17.454 8.21528 20.9542 6.11575C21.9327 9.67142 23.7837 13.0415 26.5149 15.8905C35.2893 25.0428 49.8218 25.3495 58.9741 16.5752C62.0729 13.6044 64.1559 9.97331 65.2176 6.11472C68.7182 8.21424 71.8959 10.7964 74.6591 13.7696C72.8924 17.8261 70.311 21.6076 66.9174 24.861C53.1891 38.0224 31.3905 37.5628 18.2292 23.8342Z" fill="#007D71"/>
<path fill-rule="evenodd" clip-rule="evenodd" d="M34.8025 7.94703C33.0485 6.11739 32.0209 3.85779 31.7109 1.52418C35.3357 0.534491 39.1499 0.002985 43.0883 0.002985C47.0268 0.002985 50.8406 0.534491 54.4655 1.52418C54.1343 4.01511 52.987 6.41481 51.032 8.2892C46.456 12.6765 39.1895 12.523 34.8025 7.94703Z" fill="#007D71"/>
<path fill-rule="evenodd" clip-rule="evenodd" d="M52.87 85.08C42.6202 71.3507 43.9758 51.8162 56.6608 39.6554C64.3125 32.3197 74.4711 29.2174 84.2441 30.2838C85.4248 34.0801 86.0923 38.1019 86.1711 42.2679C78.7452 40.3797 70.5426 42.2483 64.6045 47.941C55.4521 56.7153 55.1458 71.2478 63.9198 80.4C64.0103 80.4943 64.1022 80.5861 64.1934 80.6784C60.6925 82.6492 56.8897 84.1466 52.87 85.08Z" fill="#9CDB88"/>
<path fill-rule="evenodd" clip-rule="evenodd" d="M72.2085 72.4564C67.8211 67.8803 67.9743 60.6139 72.5507 56.2268C75.9239 52.9929 80.7587 52.2266 84.8246 53.8799C82.8689 61.4734 78.8954 68.2564 73.5101 73.6237C73.0539 73.2733 72.6185 72.8843 72.2085 72.4564Z" fill="#9CDB88"/>
<path d="M131.414 30.8766C126.095 30.8766 122.337 33.0749 119.997 36.833V16.6236H109.928V68.743H119.997V49.0298C119.997 42.577 123.472 39.528 128.293 39.528C132.194 39.528 136.235 41.5136 136.235 48.6752V68.743H146.376V47.1155C146.376 35.7693 139.214 30.8766 131.414 30.8766ZM191.078 60.801H182.497V39.5986H191.078V31.6566H182.497V16.6236H172.428V31.6566H166.401V39.5986H172.428V60.801H172.435C172.612 65.1994 176.263 68.743 180.702 68.743H182.497H184.262H191.078V60.801ZM157.239 27.9691C160.359 27.9691 162.912 25.4162 162.912 22.2964C162.912 19.1053 160.359 16.6236 157.239 16.6236C154.119 16.6236 151.566 19.1053 151.566 22.2964C151.566 25.4162 154.119 27.9691 157.239 27.9691ZM152.205 31.6566V68.743H162.274V31.6566H152.205ZM217.896 30.9475C211.727 30.9475 206.834 33.7131 204.99 38.1094L204.99 16.6236H194.921L194.921 68.743H204.99V63.2828C207.756 67.3958 212.649 69.5231 217.329 69.5231C228.816 69.5231 235.766 61.2975 235.766 50.3062C235.766 39.8114 229.171 30.9475 217.896 30.9475ZM215.272 60.4464C209.316 60.4464 205.061 56.1211 205.061 50.2353C205.061 44.2789 209.316 40.0241 215.272 40.0241C221.3 40.0241 225.625 44.2076 225.625 50.2353C225.625 56.1918 221.3 60.4464 215.272 60.4464Z" fill="#50555C"/>
<path d="M267.859 37.3297V37.117C265.094 33.0037 260.201 30.8766 255.521 30.8766C244.034 30.8766 237.084 39.1022 237.084 50.0935C237.084 60.6592 243.679 69.4522 254.954 69.4522C261.123 69.4522 266.016 66.7575 267.859 62.3609V68.743H278V31.6567H269.49L267.859 37.3297ZM257.577 60.4464C251.55 60.4464 247.224 56.1918 247.224 50.1644C247.224 44.2077 251.55 40.0241 257.577 40.0241C263.534 40.0241 267.789 44.2789 267.789 50.1644C267.789 56.1211 263.534 60.4464 257.577 60.4464Z" fill="#50555C"/>
</svg>
