<svg width="24" height="24" viewBox="0 0 24 24" fill="none" xmlns="http://www.w3.org/2000/svg">
<path d="M19.8882 10.1091H11.5805C10.5609 10.1091 9.73438 10.8667 9.73438 11.8014V19.4168C9.73438 20.3514 10.5609 21.1091 11.5805 21.1091H19.8882C20.9078 21.1091 21.7344 20.3514 21.7344 19.4168V11.8014C21.7344 10.8667 20.9078 10.1091 19.8882 10.1091Z" stroke="#AAADB3" stroke-width="2" stroke-linecap="round" stroke-linejoin="round"/>
<path d="M5 15H4C3.46957 15 2.96086 14.7893 2.58579 14.4142C2.21071 14.0391 2 13.5304 2 13V4C2 3.46957 2.21071 2.96086 2.58579 2.58579C2.96086 2.21071 3.46957 2 4 2H13C13.5304 2 14.0391 2.21071 14.4142 2.58579C14.7893 2.96086 15 3.46957 15 4V5" stroke="#AAADB3" stroke-width="2" stroke-linecap="round" stroke-linejoin="round"/>
</svg>
